<svg id="Layer_1" data-name="Layer 1" xmlns="http://www.w3.org/2000/svg" viewBox="0 0 227.17 274.31"><defs><style>.cls-1{fill:#bf7406;}.cls-2{fill:#f3a000;}.cls-3,.cls-6{fill:#fff;}.cls-3{opacity:0.1;}.cls-4{fill:#c97b07;}.cls-5{fill:#e48b07;}.cls-6{opacity:0.2;}.cls-7{fill:#f3ffde;}</style></defs><title>1st</title><path class="cls-1" d="M454.53,515.61h-.42a5.83,5.83,0,0,1-5.82-5.83h0a5.83,5.83,0,0,1,5.82-5.82h.14a6.81,6.81,0,0,0,2.44-13.24c-28.11-11.77-32.57-69.2-33-75.71l-.4-6.19h58v11.65H435.89C438,439,445,473.2,461.19,480a18.73,18.73,0,0,1,11.74,17.15A18.45,18.45,0,0,1,454.53,515.61Z" transform="translate(-423.31 -338.04)"/><path class="cls-1" d="M619.26,515.61h.42a5.83,5.83,0,0,0,5.82-5.83h0a5.83,5.83,0,0,0-5.82-5.82h-.14a6.81,6.81,0,0,1-2.44-13.24c28.11-11.77,32.57-69.2,33-75.71l.4-6.19h-58v11.65H637.9c-2.09,18.55-9.12,52.73-25.3,59.5a18.73,18.73,0,0,0-11.74,17.15A18.45,18.45,0,0,0,619.26,515.61Z" transform="translate(-423.31 -338.04)"/><polygon class="cls-1" points="130.14 242.39 97.2 242.39 103.03 175.85 124.31 175.85 130.14 242.39"/><path class="cls-2" d="M592.42,603.48H481.54a65.38,65.38,0,0,1,54.28-28.93h2.33a65.37,65.37,0,0,1,54.27,28.93Z" transform="translate(-423.31 -338.04)"/><rect class="cls-1" x="94.84" y="245.67" width="37.5" height="11.65"/><polygon class="cls-3" points="94.84 245.67 117.23 245.67 113.59 257.32 94.84 257.32 94.84 245.67"/><polygon class="cls-3" points="122.81 245.67 121.35 257.32 132.34 257.32 132.34 245.67 122.81 245.67"/><rect class="cls-4" x="58.23" y="265.45" width="110.89" height="8.87"/><path class="cls-2" d="M537,539.39h0a67.83,67.83,0,0,1-67.83-67.83v-76.7H604.81v76.7A67.83,67.83,0,0,1,537,539.39Z" transform="translate(-423.31 -338.04)"/><rect class="cls-5" x="36.13" y="45.05" width="155.09" height="11.77" rx="5.89" ry="5.89"/><path class="cls-6" d="M586.09,413.86v66.52c0,4.89,7.6,4.9,7.6,0V413.86C593.69,409,586.09,409,586.09,413.86Z" transform="translate(-423.31 -338.04)"/><path class="cls-6" d="M590.9,496.06c.46-4.87-7.14-4.84-7.61,0a13.5,13.5,0,0,1-5.38,9.47,3.92,3.92,0,0,0-1.36,5.2c.94,1.66,3.54,2.57,5.2,1.37l.56-.41a4.76,4.76,0,0,0,.62-.55A21.8,21.8,0,0,0,590.9,496.06Z" transform="translate(-423.31 -338.04)"/><path class="cls-6" d="M61.82,56.82h85.43a0,0,0,0,1,0,0v89a42.72,42.72,0,0,1-42.72,42.72h0a42.72,42.72,0,0,1-42.72-42.72v-89a0,0,0,0,1,0,0Z"/><path class="cls-7" d="M581.84,383.74l-4.66-2.55a25,25,0,0,1-9.94-9.94l-2.55-4.66a.93.93,0,0,0-1.63,0l-2.55,4.66a25,25,0,0,1-9.94,9.94l-4.66,2.55a.93.93,0,0,0,0,1.64l4.66,2.55a25,25,0,0,1,9.94,9.94l2.55,4.65a.93.93,0,0,0,1.63,0l2.55-4.65a25,25,0,0,1,9.94-9.94l4.66-2.55A.93.93,0,0,0,581.84,383.74Z" transform="translate(-423.31 -338.04)"/><path class="cls-7" d="M606.4,347.7l-2.56-1.39a13.74,13.74,0,0,1-5.45-5.45L597,338.3a.52.52,0,0,0-.9,0l-1.4,2.56a13.74,13.74,0,0,1-5.45,5.45l-2.55,1.39a.51.51,0,0,0,0,.9l2.55,1.4a13.68,13.68,0,0,1,5.45,5.45l1.4,2.55a.52.52,0,0,0,.9,0l1.39-2.55a13.68,13.68,0,0,1,5.45-5.45l2.56-1.4A.52.52,0,0,0,606.4,347.7Z" transform="translate(-423.31 -338.04)"/></svg>