<svg id="Layer_1" data-name="Layer 1" xmlns="http://www.w3.org/2000/svg" viewBox="0 0 315.76 360.9"><defs><style>.cls-1{fill:#f3ffde;}.cls-2{fill:#5f686f;}.cls-3{fill:#727b84;}.cls-4{fill:#d2d3d5;}.cls-5,.cls-7{fill:#fff;}.cls-5{opacity:0.1;}.cls-6{fill:#808893;}.cls-7{opacity:0.2;}</style></defs><title>2nd</title><path class="cls-1" d="M709.56,588.51,704.9,586A24.89,24.89,0,0,1,695,576l-2.55-4.65a.93.93,0,0,0-1.64,0L688.23,576a25,25,0,0,1-10,9.94l-4.65,2.55a.93.93,0,0,0,0,1.64l4.65,2.55a25,25,0,0,1,10,9.94l2.54,4.65a.93.93,0,0,0,1.64,0l2.55-4.65a24.89,24.89,0,0,1,9.94-9.94l4.66-2.55A.94.94,0,0,0,709.56,588.51Z" transform="translate(-418.62 -287.1)"/><path class="cls-1" d="M734.11,552.47l-2.55-1.39a13.74,13.74,0,0,1-5.45-5.45l-1.4-2.56a.52.52,0,0,0-.9,0l-1.39,2.56a13.74,13.74,0,0,1-5.45,5.45l-2.56,1.39a.52.52,0,0,0,0,.9l2.56,1.4a13.74,13.74,0,0,1,5.45,5.45l1.39,2.55a.51.51,0,0,0,.9,0l1.4-2.55a13.74,13.74,0,0,1,5.45-5.45l2.55-1.4A.51.51,0,0,0,734.11,552.47Z" transform="translate(-418.62 -287.1)"/><path class="cls-2" d="M461.28,515.8h-.57a8,8,0,0,1-8-8h0a8,8,0,0,1,8-8h.19a9.48,9.48,0,0,0,9.55-8.24c.44-4.31-2-8.09-6.22-9.85-38.41-16.08-44.5-94.55-45.07-103.44l-.54-8.47h79.23V385.8h-62c2.85,25.36,12.46,72.05,34.56,81.31a25.58,25.58,0,0,1,16.05,23.43A25.19,25.19,0,0,1,461.28,515.8Z" transform="translate(-418.62 -287.1)"/><path class="cls-2" d="M686.38,515.8h.56a8,8,0,0,0,8-8h0a8,8,0,0,0-8-8h-.18a9.48,9.48,0,0,1-9.56-8.24c-.44-4.31,2-8.09,6.23-9.85,38.4-16.08,44.5-94.55,45.07-103.44l.54-8.47H649.8V385.8h62c-2.84,25.36-12.45,72.05-34.56,81.31a25.58,25.58,0,0,0-16,23.43A25.19,25.19,0,0,0,686.38,515.8Z" transform="translate(-418.62 -287.1)"/><polygon class="cls-3" points="177.83 317.28 132.82 317.28 140.79 226.36 169.87 226.36 177.83 317.28"/><path class="cls-4" d="M649.71,635.88H498.19a89.32,89.32,0,0,1,74.16-39.53h3.19a89.35,89.35,0,0,1,74.17,39.53Z" transform="translate(-418.62 -287.1)"/><rect class="cls-2" x="129.59" y="321.76" width="51.24" height="15.92"/><polygon class="cls-5" points="129.59 321.76 160.18 321.76 155.21 337.68 129.59 337.68 129.59 321.76"/><polygon class="cls-5" points="167.81 321.76 165.82 337.68 180.83 337.68 180.83 321.76 167.81 321.76"/><rect class="cls-6" x="79.57" y="348.78" width="151.52" height="12.12"/><path class="cls-4" d="M574,548.3h0a92.69,92.69,0,0,1-92.69-92.68V350.81H666.63V455.62A92.69,92.69,0,0,1,574,548.3Z" transform="translate(-418.62 -287.1)"/><rect class="cls-6" x="49.37" y="47.62" width="211.92" height="16.08" rx="8.04" ry="8.04"/><path class="cls-7" d="M641.05,376.78v90.89c0,6.68,10.39,6.69,10.39,0V376.78C651.44,370.09,641.05,370.08,641.05,376.78Z" transform="translate(-418.62 -287.1)"/><path class="cls-7" d="M647.62,489.09c.63-6.65-9.76-6.6-10.39,0a18.47,18.47,0,0,1-7.36,13c-2.28,1.66-3.35,4.49-1.86,7.1,1.28,2.26,4.84,3.51,7.1,1.87l.77-.56a5.18,5.18,0,0,0,.85-.75A29.77,29.77,0,0,0,647.62,489.09Z" transform="translate(-418.62 -287.1)"/><path class="cls-7" d="M561.46,530.84h0a58.37,58.37,0,0,1-58.37-58.37V350.81H619.82V472.47A58.37,58.37,0,0,1,561.46,530.84Z" transform="translate(-418.62 -287.1)"/><path class="cls-1" d="M608.24,339.68l-5.43-3a29.15,29.15,0,0,1-11.58-11.59l-3-5.42a1.09,1.09,0,0,0-1.91,0l-3,5.42a29.24,29.24,0,0,1-11.59,11.59l-5.42,3a1.09,1.09,0,0,0,0,1.91l5.42,3a29.15,29.15,0,0,1,11.59,11.58l3,5.43a1.09,1.09,0,0,0,1.91,0l3-5.43a29.06,29.06,0,0,1,11.58-11.58l5.43-3A1.09,1.09,0,0,0,608.24,339.68Z" transform="translate(-418.62 -287.1)"/><path class="cls-1" d="M559.68,298.36l-3-1.62a16,16,0,0,1-6.35-6.35l-1.63-3a.6.6,0,0,0-1.05,0l-1.62,3a16,16,0,0,1-6.35,6.35l-3,1.62a.6.6,0,0,0,0,1.05l3,1.63a16,16,0,0,1,6.35,6.35l1.62,3a.6.6,0,0,0,1.05,0l1.63-3a15.9,15.9,0,0,1,6.35-6.35l3-1.63A.59.59,0,0,0,559.68,298.36Z" transform="translate(-418.62 -287.1)"/></svg>