<svg id="Layer_1" data-name="Layer 1" xmlns="http://www.w3.org/2000/svg" viewBox="0 0 307.39 347.49"><defs><style>.cls-1{fill:#f3ffde;}.cls-2{fill:#bd6c1a;}.cls-3{fill:#a65f17;}.cls-4{fill:#da9246;}.cls-5,.cls-6{fill:#fff;}.cls-5{opacity:0.1;}.cls-6{opacity:0.2;}</style></defs><title>3rd</title><path class="cls-1" d="M709.56,588.51,704.9,586A24.89,24.89,0,0,1,695,576l-2.55-4.65a.93.93,0,0,0-1.64,0L688.23,576a25,25,0,0,1-10,9.94l-4.65,2.55a.93.93,0,0,0,0,1.64l4.65,2.55a25,25,0,0,1,10,9.94l2.54,4.65a.93.93,0,0,0,1.64,0l2.55-4.65a24.89,24.89,0,0,1,9.94-9.94l4.66-2.55A.94.94,0,0,0,709.56,588.51Z" transform="translate(-590.59 -298.89)"/><path class="cls-1" d="M734.11,552.47l-2.55-1.39a13.74,13.74,0,0,1-5.45-5.45l-1.4-2.56a.52.52,0,0,0-.9,0l-1.39,2.56a13.74,13.74,0,0,1-5.45,5.45l-2.56,1.39a.52.52,0,0,0,0,.9l2.56,1.4a13.74,13.74,0,0,1,5.45,5.45l1.39,2.55a.51.51,0,0,0,.9,0l1.4-2.55a13.74,13.74,0,0,1,5.45-5.45l2.55-1.4A.51.51,0,0,0,734.11,552.47Z" transform="translate(-590.59 -298.89)"/><path class="cls-2" d="M632.83,515.47h-.56a7.88,7.88,0,0,1-7.88-7.88h0a7.88,7.88,0,0,1,7.88-7.88h.19a9.4,9.4,0,0,0,9.46-8.16c.43-4.27-2-8-6.17-9.76-38-15.92-44.06-93.62-44.63-102.43l-.53-8.39h78.46v15.77H607.62c2.81,25.11,12.33,71.35,34.22,80.51a25.34,25.34,0,0,1,15.89,23.21A25,25,0,0,1,632.83,515.47Z" transform="translate(-590.59 -298.89)"/><path class="cls-2" d="M855.73,515.47h.56a7.88,7.88,0,0,0,7.89-7.88h0a7.88,7.88,0,0,0-7.89-7.88h-.18a9.38,9.38,0,0,1-9.46-8.16c-.44-4.27,2-8,6.16-9.76,38-15.92,44.06-93.62,44.63-102.43L898,371H819.51v15.77H881c-2.82,25.11-12.34,71.35-34.23,80.51a25.34,25.34,0,0,0-15.89,23.21A25,25,0,0,0,855.73,515.47Z" transform="translate(-590.59 -298.89)"/><polygon class="cls-3" points="176.1 304.3 131.53 304.3 139.41 214.26 168.21 214.26 176.1 304.3"/><path class="cls-4" d="M819.42,634.38h-150a88.46,88.46,0,0,1,73.44-39.15H746a88.46,88.46,0,0,1,73.44,39.15Z" transform="translate(-590.59 -298.89)"/><rect class="cls-2" x="128.32" y="308.74" width="50.74" height="15.76"/><polygon class="cls-5" points="128.32 308.74 158.62 308.74 153.69 324.5 128.32 324.5 128.32 308.74"/><polygon class="cls-5" points="166.17 308.74 164.2 324.5 179.06 324.5 179.06 308.74 166.17 308.74"/><rect class="cls-2" x="78.79" y="335.49" width="150.04" height="12"/><path class="cls-4" d="M744.4,547.65h0a91.78,91.78,0,0,1-91.78-91.78V352.09H836.18V455.87A91.78,91.78,0,0,1,744.4,547.65Z" transform="translate(-590.59 -298.89)"/><path class="cls-2" d="M841.36,336.16H647.44a8,8,0,0,0-8,8h0a8,8,0,0,0,8,8H841.36a8,8,0,0,0,8-8h0A8,8,0,0,0,841.36,336.16Z" transform="translate(-590.59 -298.89)"/><path class="cls-6" d="M810.85,377.8v90c0,6.62,10.28,6.63,10.28,0v-90C821.13,371.18,810.85,371.17,810.85,377.8Z" transform="translate(-590.59 -298.89)"/><path class="cls-6" d="M817.35,489c.63-6.58-9.66-6.54-10.29,0a18.23,18.23,0,0,1-7.28,12.82c-2.26,1.65-3.32,4.45-1.85,7,1.28,2.23,4.8,3.46,7,1.84l.76-.55a5.55,5.55,0,0,0,.84-.74A29.46,29.46,0,0,0,817.35,489Z" transform="translate(-590.59 -298.89)"/><path class="cls-6" d="M732,530.36h0a57.8,57.8,0,0,1-57.8-57.8V352.09h115.6V472.56A57.8,57.8,0,0,1,732,530.36Z" transform="translate(-590.59 -298.89)"/><path class="cls-1" d="M703.49,323.52,697,320a34.9,34.9,0,0,1-13.89-13.89l-3.56-6.51a1.31,1.31,0,0,0-2.29,0l-3.56,6.51A34.9,34.9,0,0,1,659.8,320l-6.5,3.56a1.3,1.3,0,0,0,0,2.29l6.5,3.56a34.81,34.81,0,0,1,13.89,13.88l3.56,6.51a1.31,1.31,0,0,0,2.29,0l3.56-6.51A34.81,34.81,0,0,1,697,329.37l6.5-3.56A1.3,1.3,0,0,0,703.49,323.52Z" transform="translate(-590.59 -298.89)"/><path class="cls-1" d="M711.65,364.75l3.11-1.71a16.63,16.63,0,0,0,6.65-6.65l1.71-3.11a.62.62,0,0,1,1.09,0l1.71,3.11a16.63,16.63,0,0,0,6.65,6.65l3.11,1.71a.62.62,0,0,1,0,1.09l-3.11,1.71a16.63,16.63,0,0,0-6.65,6.65l-1.71,3.11a.62.62,0,0,1-1.09,0l-1.71-3.11a16.63,16.63,0,0,0-6.65-6.65l-3.11-1.71A.62.62,0,0,1,711.65,364.75Z" transform="translate(-590.59 -298.89)"/></svg>